<svg width="18" height="20" viewBox="0 0 18 20" fill="none" xmlns="http://www.w3.org/2000/svg">
<g id="Group 76">
<path id="Vector" d="M0.824219 9.80381C0.824219 8.26086 1.53658 6.80433 2.75452 5.85705L7.77141 1.95502C8.49363 1.39329 9.50495 1.39329 10.2272 1.95502L15.2441 5.85705C16.462 6.80433 17.1744 8.26086 17.1744 9.80381V17.3501C17.1744 17.832 16.983 18.294 16.6423 18.6347C16.3016 18.9754 15.8395 19.1668 15.3577 19.1668H2.6409C2.15909 19.1668 1.69701 18.9754 1.35631 18.6347C1.01562 18.294 0.824219 17.832 0.824219 17.3501V9.80381Z" stroke="black" stroke-width="1.5" stroke-linecap="round" stroke-linejoin="round"/>
<path id="Vector_2" d="M6.27344 19.1674V12.809C6.27344 11.304 7.49347 10.084 8.99846 10.084V10.084C10.5035 10.084 11.7235 11.304 11.7235 12.809V19.1674" stroke="black" stroke-width="1.5" stroke-linecap="round" stroke-linejoin="round"/>
</g>
</svg>
